<?xml version="1.0" encoding="utf-8"?>
<!-- Generator: Adobe Illustrator 16.0.0, SVG Export Plug-In . SVG Version: 6.00 Build 0)  -->
<!DOCTYPE svg PUBLIC "-//W3C//DTD SVG 1.1//EN" "http://www.w3.org/Graphics/SVG/1.1/DTD/svg11.dtd">
<svg version="1.1" id="_x31__xA0_影像_1_" xmlns="http://www.w3.org/2000/svg" xmlns:xlink="http://www.w3.org/1999/xlink"
	 x="0px" y="0px" width="1417px" height="1417px" viewBox="0 0 1417 1417" enable-background="new 0 0 1417 1417"
	 xml:space="preserve">
<g>
	<g>
		<path fill-rule="evenodd" clip-rule="evenodd" fill="#FFFFFF" d="M597.03,822.97c0-75.01,0-149.99,0-224.939
			c75.01,0,149.989,0,224.939,0c0,75.01,0,149.99,0,224.939C746.96,822.97,671.98,822.97,597.03,822.97z M741.707,810.553
			c41.588-11.268,80.663-56.438,74.045-114.367c-6.279-54.953-55.096-99.766-116.905-94.105
			c-54.81,5.019-96.791,51.282-96.86,106.355c-0.075,58.928,45.279,97.612,81.235,103.84c-2.362-4.82-4.821-10.219-7.652-15.416
			c-1.068-1.961-2.667-4.15-4.583-5.059c-43.429-20.591-63.813-69.491-47.272-114.648c8.58-23.426,24.697-40.204,47.611-51.39
			c0.037,9.668,5.527,16.217,10.646,22.988c4.246,5.616,3.939,8.826-0.465,14.228c-1.111,1.363-2.377,4.249-1.773,5.014
			c1.203,1.523,3.756,3.034,5.574,2.844c10.058-1.048,20.306-1.678,30.028-4.216c14.28-3.729,25.938-11.979,33.557-25.031
			c2.157-3.696,3.717-7.742,5.55-11.628c26.533,12.72,47.258,47.97,46.133,79.381c-1.278,35.642-17.549,62.423-48.608,80.16
			c-1.398,0.799-2.675,2.339-3.323,3.831C746.159,799.061,743.953,804.909,741.707,810.553z M711.771,820.016
			c18.283-0.049,33.266-15.139,33.23-33.47c-0.033-18.235-15.217-33.379-33.426-33.338c-18.236,0.042-33.161,15.112-33.203,33.527
			C678.332,804.979,693.472,820.064,711.771,820.016z M676.034,774.507c3.309-8.067,8.072-14.296,14.776-19.047
			c1.036-0.734,1.541-2.458,1.927-3.827c2.532-8.968,9.281-14.544,17.897-14.652c8.695-0.109,15.469,5.103,18.388,14.044
			c0.39,1.195,0.892,2.718,1.833,3.312c7.795,4.924,13.175,11.799,16.55,20.465c10.749-11.627,9.839-26.631-2.124-36.831
			c-11.021-9.399-24.105-12.272-38.227-11.231c-12.367,0.911-23.424,4.963-31.913,14.424
			C666.262,751.06,666.51,764.76,676.034,774.507z M748.997,706.203c0.006-6.635-5.446-12.024-12.098-11.958
			c-6.446,0.064-11.741,5.268-11.901,11.694c-0.164,6.602,5.221,12.122,11.886,12.182
			C743.572,718.181,748.991,712.85,748.997,706.203z M668.8,705.877c-0.135,6.941,4.779,12.131,11.596,12.243
			c6.708,0.111,12.111-5.115,12.201-11.801c0.087-6.573-5.4-12.104-12.01-12.103C674.137,694.218,668.926,699.373,668.8,705.877z
			 M696.394,752.379c10.035-4.014,19.1-4.257,28.391-1.407c-2.723-5.283-6.874-7.933-12.588-8.222
			C705.376,742.405,700.471,745.359,696.394,752.379z"/>
		<path fill-rule="evenodd" clip-rule="evenodd" d="M741.707,810.553c2.246-5.644,4.452-11.492,6.938-17.22
			c0.648-1.492,1.925-3.032,3.323-3.831c31.06-17.737,47.33-44.519,48.608-80.16c1.125-31.411-19.6-66.661-46.133-79.381
			c-1.833,3.886-3.393,7.932-5.55,11.628c-7.619,13.053-19.276,21.302-33.557,25.031c-9.722,2.538-19.97,3.168-30.028,4.216
			c-1.818,0.19-4.371-1.32-5.574-2.844c-0.604-0.765,0.662-3.65,1.773-5.014c4.404-5.401,4.711-8.611,0.465-14.228
			c-5.12-6.771-10.609-13.32-10.646-22.988c-22.914,11.186-39.031,27.964-47.611,51.39c-16.541,45.157,3.844,94.058,47.272,114.648
			c1.915,0.908,3.514,3.098,4.583,5.059c2.831,5.197,5.29,10.596,7.652,15.416c-35.956-6.228-81.31-44.912-81.235-103.84
			c0.07-55.073,42.051-101.337,96.86-106.355c61.809-5.66,110.625,39.152,116.905,94.105
			C822.37,754.114,783.295,799.285,741.707,810.553z"/>
		<path fill-rule="evenodd" clip-rule="evenodd" d="M711.771,820.016c-18.299,0.049-33.439-15.037-33.398-33.28
			c0.042-18.415,14.967-33.485,33.203-33.527c18.209-0.041,33.393,15.103,33.426,33.338
			C745.037,804.877,730.055,819.967,711.771,820.016z M728.959,786.793c0.082-9.495-7.971-17.639-17.389-17.584
			c-9.125,0.054-17.189,8.103-17.312,17.279c-0.124,9.217,7.736,17.274,17.007,17.437
			C720.906,804.093,728.877,796.375,728.959,786.793z"/>
		<path fill-rule="evenodd" clip-rule="evenodd" d="M676.034,774.507c-9.524-9.747-9.772-23.447-0.892-33.345
			c8.489-9.461,19.545-13.513,31.913-14.424c14.121-1.041,27.205,1.832,38.227,11.231c11.963,10.2,12.873,25.204,2.124,36.831
			c-3.375-8.666-8.755-15.541-16.55-20.465c-0.941-0.594-1.443-2.116-1.833-3.312c-2.919-8.941-9.692-14.153-18.388-14.044
			c-8.616,0.108-15.365,5.685-17.897,14.652c-0.386,1.369-0.892,3.093-1.927,3.827C684.106,760.211,679.343,766.439,676.034,774.507
			z"/>
		<path fill-rule="evenodd" clip-rule="evenodd" d="M748.997,706.203c-0.006,6.646-5.425,11.978-12.113,11.918
			c-6.665-0.06-12.05-5.58-11.886-12.182c0.16-6.427,5.455-11.63,11.901-11.694C743.551,694.179,749.003,699.568,748.997,706.203z"
			/>
		<path fill-rule="evenodd" clip-rule="evenodd" d="M668.8,705.877c0.126-6.504,5.337-11.659,11.787-11.66
			c6.609-0.001,12.097,5.529,12.01,12.103c-0.089,6.686-5.493,11.912-12.201,11.801C673.579,718.008,668.665,712.818,668.8,705.877z
			"/>
		<path fill-rule="evenodd" clip-rule="evenodd" d="M696.394,752.379c4.077-7.02,8.982-9.974,15.803-9.629
			c5.714,0.289,9.865,2.938,12.588,8.222C715.494,748.122,706.429,748.365,696.394,752.379z"/>
		<path fill-rule="evenodd" clip-rule="evenodd" fill="#FFFFFF" d="M728.959,786.793c-0.082,9.582-8.053,17.3-17.693,17.132
			c-9.271-0.162-17.131-8.22-17.007-17.437c0.123-9.177,8.188-17.226,17.312-17.279
			C720.988,769.154,729.041,777.298,728.959,786.793z M724.91,787.779c-1.221-9.853-6.523-14.727-14.178-14.177
			c-7.231,0.52-11.946,5.852-11.659,14.177C707.511,787.779,715.981,787.779,724.91,787.779z"/>
		<path fill-rule="evenodd" clip-rule="evenodd" d="M724.91,787.779c-8.929,0-17.399,0-25.836,0
			c-0.288-8.325,4.428-13.657,11.659-14.177C718.387,773.053,723.689,777.927,724.91,787.779z"/>
	</g>
</g>
</svg>
